<svg id="Layer_1" data-name="Layer 1" xmlns="http://www.w3.org/2000/svg" xmlns:xlink="http://www.w3.org/1999/xlink" viewBox="0 0 866.35 493.04"><defs><clipPath id="clip-path" transform="translate(119.7 -83.48)"><path d="M47.31,184.34l22.79,12.4a2,2,0,0,0-.59-.2,2.44,2.44,0,0,0-.54,0L46.18,184.15a1.63,1.63,0,0,1,.54,0A1.86,1.86,0,0,1,47.31,184.34Z" style="fill:none"/></clipPath><clipPath id="clip-path-2" transform="translate(119.7 -83.48)"><path d="M65.21,300.81l-22.79-12.4a2.18,2.18,0,0,1-1-2.55,72.13,72.13,0,0,0,2.8-18.65c.52-13.47-.76-26.69-1.49-39.94C42,213.77,41.59,200,44,186.21a2.67,2.67,0,0,1,2.2-2.06L69,196.54a2.67,2.67,0,0,0-2.19,2.07c-2.39,13.8-2,27.56-1.25,41.06.73,13.25,2,26.47,1.5,39.93a72.59,72.59,0,0,1-2.81,18.66A2.2,2.2,0,0,0,65.21,300.81Z" style="fill:none"/></clipPath><clipPath id="clip-path-3" transform="translate(119.7 -83.48)"><path d="M240.65,262.45l22.79,12.4a2.06,2.06,0,0,0-.54-.2c-10.38-2.43-21.4-2.54-32.31-1.77-5.45.37-10.91,1-16.38,1.75l-22.79-12.4c5.46-.77,10.92-1.37,16.37-1.75,10.92-.77,21.94-.66,32.32,1.77A2.06,2.06,0,0,1,240.65,262.45Z" style="fill:none"/></clipPath><clipPath id="clip-path-4" transform="translate(119.7 -83.48)"><path d="M65.82,301.29,43,288.89a2.34,2.34,0,0,1-.94-2.56,2.7,2.7,0,0,1,2.23-2.05,2.9,2.9,0,0,1,.51,0c1.51.1,3,.18,4.54.23A222.28,222.28,0,0,0,87.77,282l.74-.1c13.79-2,27.57-4.7,41.32-7.6,13.51-2.84,27-5.86,40.53-8.46,7-1.35,14-2.6,21.06-3.59l22.79,12.4c-7,1-14,2.24-21.05,3.59-13.53,2.6-27,5.62-40.53,8.46-13.76,2.9-27.54,5.64-41.33,7.6l-.74.1a222.28,222.28,0,0,1-38.4,2.51c-1.51-.05-3-.13-4.54-.23a2.9,2.9,0,0,0-.51,0,2.7,2.7,0,0,0-2.23,2.05A2.35,2.35,0,0,0,65.82,301.29Z" style="fill:none"/></clipPath><clipPath id="clip-path-5" transform="translate(119.7 -83.48)"><path d="M299.6,308.61,322.39,321a1.93,1.93,0,0,0-.51-.19c-15.77-3.7-32.51-3.87-49.11-2.71-8.3.58-16.61,1.51-24.93,2.68l-22.79-12.4c8.31-1.17,16.63-2.1,24.93-2.68,16.6-1.16,33.34-1,49.11,2.71A1.93,1.93,0,0,1,299.6,308.61Z" style="fill:none"/></clipPath><clipPath id="clip-path-6" transform="translate(119.7 -83.48)"><path d="M23,354.48.16,342.08c2.78.14,5.1.25,7.43.34,19.58.67,39.48-1.1,59.31-3.88l.75-.11c21-3,41.95-7.15,62.88-11.55,20.74-4.37,41.46-9,62.21-13,10.76-2.06,21.53-4,32.31-5.49l22.79,12.4c-10.77,1.51-21.55,3.42-32.3,5.49-20.76,4-41.48,8.63-62.21,13-20.94,4.4-41.91,8.58-62.89,11.55l-.75.11c-19.82,2.78-39.73,4.55-59.31,3.88C28.06,354.73,25.73,354.62,23,354.48Z" style="fill:none"/></clipPath><clipPath id="clip-path-7" transform="translate(119.7 -83.48)"><path d="M21.45,359.06l-22.79-12.4c-1.64-.89-.67-4.27,1.5-4.58L23,354.48C20.78,354.79,19.81,358.17,21.45,359.06Z" style="fill:none"/></clipPath><clipPath id="clip-path-8" transform="translate(119.7 -83.48)"><path d="M156.14,323.69l22.79,12.39a1.86,1.86,0,0,0-.59-.19,1.69,1.69,0,0,0-.55,0L155,323.49a1.75,1.75,0,0,1,.56,0A1.72,1.72,0,0,1,156.14,323.69Z" style="fill:none"/></clipPath><clipPath id="clip-path-9" transform="translate(119.7 -83.48)"><path d="M174.93,405.19l-22.8-12.4a2.19,2.19,0,0,1-1-2.55,46.93,46.93,0,0,0,1.8-12.13c.64-17.62-3.22-34.69-.15-52.56a2.66,2.66,0,0,1,2.19-2.06l22.8,12.4A2.66,2.66,0,0,0,175.6,338c-3.07,17.87.78,34.94.15,52.56a46.94,46.94,0,0,1-1.81,12.13A2.18,2.18,0,0,0,174.93,405.19Z" style="fill:none"/></clipPath><clipPath id="clip-path-10" transform="translate(119.7 -83.48)"><path d="M61.92,368.45l22.8,12.4a1.86,1.86,0,0,0-.59-.19,1.63,1.63,0,0,0-.54,0l-22.8-12.4a1.63,1.63,0,0,1,.54,0A1.78,1.78,0,0,1,61.92,368.45Z" style="fill:none"/></clipPath><clipPath id="clip-path-11" transform="translate(119.7 -83.48)"><path d="M79.83,484.91,57,472.51A2.18,2.18,0,0,1,56,470a72.3,72.3,0,0,0,2.81-18.67c.52-13.46-.77-26.69-1.5-39.93-.73-13.5-1.14-27.27,1.25-41.06a2.65,2.65,0,0,1,2.19-2.06l22.8,12.4a2.67,2.67,0,0,0-2.2,2.06c-2.39,13.79-2,27.56-1.24,41.06.72,13.24,2,26.47,1.49,39.93a72.72,72.72,0,0,1-2.8,18.67A2.15,2.15,0,0,0,79.83,484.91Z" style="fill:none"/></clipPath><clipPath id="clip-path-12" transform="translate(119.7 -83.48)"><path d="M255.27,446.57,278.06,459a1.74,1.74,0,0,0-.55-.21c-10.37-2.43-21.39-2.53-32.31-1.78-5.44.38-10.89,1-16.35,1.76l-22.79-12.4c5.45-.77,10.91-1.38,16.35-1.76,10.92-.75,21.94-.65,32.31,1.78A2.41,2.41,0,0,1,255.27,446.57Z" style="fill:none"/></clipPath><clipPath id="clip-path-13" transform="translate(119.7 -83.48)"><path d="M80.44,485.4,57.65,473a2.34,2.34,0,0,1-.95-2.56,2.69,2.69,0,0,1,2.23-2,2.24,2.24,0,0,1,.52,0c1.51.09,3,.17,4.54.22,12.74.45,25.72-.73,38.63-2.54l.51-.07c13.78-2,27.56-4.71,41.32-7.6,13.51-2.85,27-5.87,40.53-8.47,7-1.34,14.05-2.59,21.08-3.58l22.79,12.4c-7,1-14.06,2.23-21.08,3.58-13.52,2.6-27,5.62-40.53,8.47-13.75,2.89-27.53,5.64-41.32,7.6l-.51.07c-12.91,1.81-25.88,3-38.63,2.54-1.51-.05-3-.13-4.54-.22a1.82,1.82,0,0,0-.52,0,2.67,2.67,0,0,0-2.22,2A2.34,2.34,0,0,0,80.44,485.4Z" style="fill:none"/></clipPath><clipPath id="clip-path-14" transform="translate(119.7 -83.48)"><path d="M580.61,161.62l22.8,12.4a2.41,2.41,0,0,0-.55-.21c-10.37-2.42-21.39-2.53-32.31-1.77-5.45.38-10.91,1-16.38,1.76l-22.79-12.4c5.46-.77,10.93-1.38,16.38-1.76,10.92-.76,21.94-.65,32.31,1.77A2.33,2.33,0,0,1,580.61,161.62Z" style="fill:none"/></clipPath><clipPath id="clip-path-15" transform="translate(119.7 -83.48)"><path d="M405.79,200.45,383,188.05a2.33,2.33,0,0,1-.95-2.55,2.69,2.69,0,0,1,2.23-2,2.24,2.24,0,0,1,.52,0c1.5.09,3,.17,4.54.22a223.16,223.16,0,0,0,38.39-2.51l.75-.11c13.78-1.95,27.56-4.7,41.32-7.6,13.51-2.84,27-5.86,40.53-8.46,7-1.35,14-2.6,21.05-3.58l22.79,12.4c-7,1-14,2.23-21,3.58-13.52,2.6-27,5.62-40.53,8.46-13.75,2.9-27.53,5.64-41.32,7.6l-.74.1a222.36,222.36,0,0,1-38.4,2.52c-1.52-.05-3-.13-4.54-.22a1.82,1.82,0,0,0-.52,0,2.67,2.67,0,0,0-2.22,2A2.33,2.33,0,0,0,405.79,200.45Z" style="fill:none"/></clipPath><clipPath id="clip-path-16" transform="translate(119.7 -83.48)"><path d="M384.54,183.8l22.79,12.4a2,2,0,0,0-.59-.2,2.44,2.44,0,0,0-.54,0l-22.79-12.39a1.63,1.63,0,0,1,.54,0A1.86,1.86,0,0,1,384.54,183.8Z" style="fill:none"/></clipPath><clipPath id="clip-path-17" transform="translate(119.7 -83.48)"><path d="M402.43,300.26l-22.79-12.4a2.17,2.17,0,0,1-1-2.54,72.15,72.15,0,0,0,2.8-18.66c.53-13.47-.76-26.68-1.49-39.93-.74-13.51-1.14-27.27,1.24-41.06a2.67,2.67,0,0,1,2.2-2.06L406.2,196a2.67,2.67,0,0,0-2.19,2.07c-2.38,13.79-2,27.55-1.25,41.05.73,13.26,2,26.47,1.5,39.94a72.59,72.59,0,0,1-2.81,18.66A2.18,2.18,0,0,0,402.43,300.26Z" style="fill:none"/></clipPath><clipPath id="clip-path-18" transform="translate(119.7 -83.48)"><path d="M578.07,262.52l22.8,12.4a2.6,2.6,0,0,0-.55-.21c-10.38-2.43-21.4-2.54-32.31-1.78-5.45.38-10.91,1-16.38,1.76l-22.79-12.4c5.46-.77,10.92-1.38,16.37-1.76,10.92-.76,21.94-.65,32.31,1.78A2.25,2.25,0,0,1,578.07,262.52Z" style="fill:none"/></clipPath><clipPath id="clip-path-19" transform="translate(119.7 -83.48)"><path d="M403.24,301.34l-22.79-12.4a2.33,2.33,0,0,1-.94-2.55,2.66,2.66,0,0,1,2.22-2,2.27,2.27,0,0,1,.52,0c1.51.09,3,.17,4.54.22,12.75.45,25.72-.73,38.63-2.54l.51-.07c13.79-2,27.57-4.71,41.32-7.61,13.51-2.84,27-5.86,40.53-8.46,7-1.35,14-2.6,21.06-3.58l22.79,12.4c-7,1-14,2.23-21.06,3.58-13.52,2.6-27,5.62-40.53,8.46-13.75,2.9-27.53,5.64-41.32,7.61l-.51.07c-12.9,1.81-25.88,3-38.63,2.54-1.51-.05-3-.13-4.54-.22a1.75,1.75,0,0,0-.51,0,2.69,2.69,0,0,0-2.23,2A2.34,2.34,0,0,0,403.24,301.34Z" style="fill:none"/></clipPath><clipPath id="clip-path-20" transform="translate(119.7 -83.48)"><path d="M579.71,163l22.8,12.4a1.93,1.93,0,0,0-.6-.2,1.63,1.63,0,0,0-.54,0l-22.79-12.4a1.63,1.63,0,0,1,.54,0A1.79,1.79,0,0,1,579.71,163Z" style="fill:none"/></clipPath><clipPath id="clip-path-21" transform="translate(119.7 -83.48)"><path d="M597.61,279.5l-22.79-12.4a2.2,2.2,0,0,1-1-2.55,72.59,72.59,0,0,0,2.81-18.66c.53-13.46-.77-26.68-1.5-39.93-.73-13.5-1.14-27.26,1.25-41.06a2.67,2.67,0,0,1,2.19-2.06l22.79,12.4a2.67,2.67,0,0,0-2.19,2.06c-2.39,13.8-2,27.56-1.25,41.06.73,13.25,2,26.47,1.5,39.93A72.16,72.16,0,0,1,596.62,277,2.2,2.2,0,0,0,597.61,279.5Z" style="fill:none"/></clipPath><clipPath id="clip-path-22" transform="translate(119.7 -83.48)"><path d="M635.58,298.61l22.8,12.4a2.14,2.14,0,0,0-.52-.19c-15.77-3.7-32.51-3.87-49.11-2.71-8.3.58-16.61,1.51-24.93,2.68L561,298.39c8.31-1.17,16.63-2.1,24.93-2.68,16.6-1.16,33.34-1,49.11,2.71A1.93,1.93,0,0,1,635.58,298.61Z" style="fill:none"/></clipPath><clipPath id="clip-path-23" transform="translate(119.7 -83.48)"><path d="M358.93,344.49l-22.79-12.4c2.78.13,5.1.24,7.42.32,19.66.69,39.65-1.11,59.56-3.91,21.49-3,42.46-7.22,63.39-11.62,20.74-4.37,41.46-9,62.21-13,10.76-2.06,21.53-4,32.31-5.49l22.79,12.4c-10.77,1.51-21.55,3.43-32.3,5.49-20.76,4-41.48,8.63-62.21,13-20.94,4.4-41.91,8.58-63.4,11.62-19.9,2.8-39.89,4.59-59.55,3.91C364,344.73,361.71,344.62,358.93,344.49Z" style="fill:none"/></clipPath><clipPath id="clip-path-24" transform="translate(119.7 -83.48)"><path d="M357.43,349.06l-22.79-12.4c-1.64-.89-.67-4.27,1.5-4.57l22.79,12.4C356.76,344.79,355.79,348.17,357.43,349.06Z" style="fill:none"/></clipPath><clipPath id="clip-path-25" transform="translate(119.7 -83.48)"><path d="M487.12,315.37l22.79,12.4a2.17,2.17,0,0,0-1.36-.23l-22.79-12.4A2.19,2.19,0,0,1,487.12,315.37Z" style="fill:none"/></clipPath><clipPath id="clip-path-26" transform="translate(119.7 -83.48)"><path d="M505.84,376.74l-22.79-12.4a2.39,2.39,0,0,1-.72-3.14A24.48,24.48,0,0,0,484,352a108.1,108.1,0,0,0-.62-11.28c-.7-7.71-1.55-15.67.38-23.63a2.45,2.45,0,0,1,2-2l22.79,12.4a2.44,2.44,0,0,0-2,2c-1.94,8-1.09,15.92-.39,23.63a105.43,105.43,0,0,1,.62,11.28,24.51,24.51,0,0,1-1.63,9.17A2.4,2.4,0,0,0,505.84,376.74Z" style="fill:none"/></clipPath><clipPath id="clip-path-27" transform="translate(119.7 -83.48)"><path d="M592.5,350.4l22.79,12.4a2.25,2.25,0,0,0-.55-.21c-10.37-2.43-21.38-2.54-32.31-1.77-5.44.38-10.89,1-16.35,1.75l-22.79-12.4c5.46-.76,10.91-1.37,16.35-1.75,10.93-.77,21.94-.66,32.31,1.78A2,2,0,0,1,592.5,350.4Z" style="fill:none"/></clipPath><clipPath id="clip-path-28" transform="translate(119.7 -83.48)"><path d="M417.67,389.23l-22.79-12.4a2.34,2.34,0,0,1-.95-2.56,2.69,2.69,0,0,1,2.23-2,3,3,0,0,1,.52,0c1.51.1,3,.17,4.54.23a224,224,0,0,0,38.63-2.54l.51-.08c13.78-2,27.56-4.7,41.32-7.59,13.51-2.85,27-5.87,40.53-8.47,7-1.35,14-2.6,21.08-3.59l22.79,12.4c-7,1-14.06,2.24-21.08,3.59-13.52,2.6-27,5.62-40.53,8.47-13.75,2.89-27.53,5.63-41.32,7.59l-.51.08A224,224,0,0,1,424,384.84c-1.51-.06-3-.13-4.54-.23a3,3,0,0,0-.52,0,2.67,2.67,0,0,0-2.22,2A2.34,2.34,0,0,0,417.67,389.23Z" style="fill:none"/></clipPath><clipPath id="clip-path-29" transform="translate(119.7 -83.48)"><path d="M593.4,351.69l22.79,12.4a2.25,2.25,0,0,0-1.36-.24L592,351.45A2.25,2.25,0,0,1,593.4,351.69Z" style="fill:none"/></clipPath><clipPath id="clip-path-30" transform="translate(119.7 -83.48)"><path d="M612.12,413.05l-22.79-12.4a2.39,2.39,0,0,1-.72-3.13,24.73,24.73,0,0,0,1.63-9.18,108.25,108.25,0,0,0-.62-11.28c-.7-7.7-1.55-15.67.39-23.62a2.46,2.46,0,0,1,2-2l22.79,12.4a2.48,2.48,0,0,0-2,2c-1.94,8-1.09,15.92-.39,23.62a105.57,105.57,0,0,1,.62,11.28,24.37,24.37,0,0,1-1.63,9.18A2.4,2.4,0,0,0,612.12,413.05Z" style="fill:none"/></clipPath><clipPath id="clip-path-31" transform="translate(119.7 -83.48)"><path d="M592.5,397.9l22.79,12.39a2,2,0,0,0-.55-.2c-10.37-2.43-21.38-2.54-32.31-1.78-5.44.38-10.89,1-16.35,1.76l-22.79-12.4c5.46-.77,10.91-1.38,16.35-1.76,10.93-.76,21.94-.65,32.31,1.78A1.74,1.74,0,0,1,592.5,397.9Z" style="fill:none"/></clipPath><clipPath id="clip-path-32" transform="translate(119.7 -83.48)"><path d="M417.67,436.73l-22.79-12.4a2.34,2.34,0,0,1-.95-2.56,2.7,2.7,0,0,1,2.23-2,3,3,0,0,1,.52,0c1.51.1,3,.18,4.54.23a224,224,0,0,0,38.63-2.54l.51-.07c13.78-2,27.56-4.71,41.32-7.6,13.51-2.85,27-5.87,40.53-8.47,7-1.35,14-2.59,21.08-3.58l22.79,12.4c-7,1-14.06,2.23-21.08,3.58-13.52,2.6-27,5.62-40.53,8.47-13.75,2.89-27.53,5.64-41.32,7.6l-.51.07A224,224,0,0,1,424,432.33c-1.51-.06-3-.13-4.54-.23a3,3,0,0,0-.52,0,2.69,2.69,0,0,0-2.22,2.05A2.34,2.34,0,0,0,417.67,436.73Z" style="fill:none"/></clipPath><clipPath id="clip-path-33" transform="translate(119.7 -83.48)"><path d="M397,421.16l22.8,12.4a2.2,2.2,0,0,0-1.36-.23l-22.8-12.4A2.17,2.17,0,0,1,397,421.16Z" style="fill:none"/></clipPath><clipPath id="clip-path-34" transform="translate(119.7 -83.48)"><path d="M415.71,482.54l-22.8-12.4a2.4,2.4,0,0,1-.73-3.14,24.37,24.37,0,0,0,1.63-9.18,105.62,105.62,0,0,0-.62-11.29c-.7-7.7-1.55-15.66.39-23.62a2.44,2.44,0,0,1,2-2l22.8,12.4a2.45,2.45,0,0,0-2,2c-1.93,8-1.08,15.92-.39,23.62a103.07,103.07,0,0,1,.62,11.29A24.56,24.56,0,0,1,415,479.4,2.4,2.4,0,0,0,415.71,482.54Z" style="fill:none"/></clipPath><clipPath id="clip-path-35" transform="translate(119.7 -83.48)"><path d="M592.5,443.61,615.29,456a1.74,1.74,0,0,0-.55-.21c-10.37-2.42-21.38-2.54-32.31-1.78-5.44.38-10.89,1-16.35,1.76l-22.79-12.4c5.46-.77,10.91-1.38,16.35-1.76,10.93-.76,21.94-.64,32.31,1.78A1.74,1.74,0,0,1,592.5,443.61Z" style="fill:none"/></clipPath><clipPath id="clip-path-36" transform="translate(119.7 -83.48)"><path d="M417.67,482.44,394.88,470a2.34,2.34,0,0,1-.95-2.56,2.69,2.69,0,0,1,2.23-2,1.8,1.8,0,0,1,.52,0c1.51.09,3,.17,4.54.22,12.74.45,25.72-.73,38.63-2.54l.51-.07c13.78-2,27.56-4.71,41.32-7.6,13.51-2.85,27-5.87,40.53-8.47,7-1.35,14-2.59,21.08-3.58l22.79,12.4c-7,1-14.06,2.23-21.08,3.58-13.52,2.6-27,5.62-40.53,8.47-13.75,2.89-27.53,5.64-41.32,7.6l-.51.07A224,224,0,0,1,424,478c-1.51-.05-3-.13-4.54-.23a3,3,0,0,0-.52,0,2.7,2.7,0,0,0-2.22,2.05A2.34,2.34,0,0,0,417.67,482.44Z" style="fill:none"/></clipPath></defs><rect width="866.35" height="493.04" style="fill:#fff"/><g style="isolation:isolate"><g style="isolation:isolate"><g style="clip-path:url(#clip-path)"><g style="isolation:isolate"><path d="M69,196.54,46.18,184.15a1.63,1.63,0,0,1,.54,0l.19,0,22.79,12.4-.19,0a2.44,2.44,0,0,0-.54,0" transform="translate(119.7 -83.48)"/><path d="M69.7,196.58l-22.79-12.4a2.52,2.52,0,0,1,.33.13L70,196.71a2,2,0,0,0-.34-.13" transform="translate(119.7 -83.48)"/><path d="M70,196.71l-22.8-12.4.07,0,22.79,12.4-.06,0" transform="translate(119.7 -83.48)"/></g></g></g><g style="isolation:isolate"><g style="clip-path:url(#clip-path-2)"><g style="isolation:isolate"><path d="M65.21,300.81l-22.79-12.4a2.18,2.18,0,0,1-1-2.55,72.13,72.13,0,0,0,2.8-18.65c.52-13.47-.76-26.69-1.49-39.94C42,213.77,41.59,200,44,186.21c0-.13.06-.26.1-.38l22.8,12.4a1.64,1.64,0,0,0-.1.38c-2.39,13.8-2,27.56-1.25,41.06.73,13.25,2,26.47,1.5,39.93a72.59,72.59,0,0,1-2.81,18.66,2.2,2.2,0,0,0,1,2.55" transform="translate(119.7 -83.48)"/><path d="M66.88,198.23l-22.8-12.4c0-.1.09-.2.14-.3L67,197.93c-.05.1-.09.2-.13.3" transform="translate(119.7 -83.48)"/><path d="M67,197.93l-22.79-12.4.15-.25,22.8,12.4a2.13,2.13,0,0,0-.16.25" transform="translate(119.7 -83.48)"/><path d="M67.17,197.68l-22.8-12.4a2.11,2.11,0,0,1,.19-.23l22.79,12.4a1.3,1.3,0,0,0-.18.23" transform="translate(119.7 -83.48)"/><path d="M67.35,197.45l-22.79-12.4a2.39,2.39,0,0,1,.22-.23l22.79,12.4a2.39,2.39,0,0,0-.22.23" transform="translate(119.7 -83.48)"/><path d="M67.57,197.22l-22.79-12.4.29-.23L67.86,197l-.29.23" transform="translate(119.7 -83.48)"/><path d="M67.86,197l-22.79-12.4a3.18,3.18,0,0,1,.4-.23l22.8,12.4a3.3,3.3,0,0,0-.41.23" transform="translate(119.7 -83.48)"/><path d="M68.27,196.76l-22.8-12.4a2.31,2.31,0,0,1,.71-.21L69,196.54a2.7,2.7,0,0,0-.7.22" transform="translate(119.7 -83.48)"/></g></g></g><path d="M69,196.54a2.44,2.44,0,0,1,.54,0,2.16,2.16,0,0,1,1.55,2.74,131.53,131.53,0,0,0-1.64,22.4c0,13.88,1.35,27.52,1.93,41.29.49,11.69.78,24.18-2.85,36A2.85,2.85,0,0,1,66.35,301a2.26,2.26,0,0,1-.58,0,2.12,2.12,0,0,1-1.55-2.74A72.59,72.59,0,0,0,67,279.6c.52-13.46-.77-26.68-1.5-39.93-.73-13.5-1.14-27.26,1.25-41.06A2.67,2.67,0,0,1,69,196.54Z" transform="translate(119.7 -83.48)"/></g><g style="isolation:isolate"><g style="isolation:isolate"><g style="clip-path:url(#clip-path-3)"><g style="isolation:isolate"><path d="M214.21,274.63l-22.79-12.4c5.46-.77,10.92-1.37,16.37-1.75,10.92-.77,21.94-.66,32.32,1.77h0l22.8,12.4h0c-10.38-2.43-21.4-2.54-32.31-1.77-5.45.37-10.91,1-16.38,1.75" transform="translate(119.7 -83.48)"/><path d="M262.94,274.66l-22.8-12.4a3.12,3.12,0,0,1,.43.15l22.79,12.4a2.6,2.6,0,0,0-.42-.15" transform="translate(119.7 -83.48)"/><path d="M263.36,274.81l-22.79-12.4.08,0,22.79,12.4-.08,0" transform="translate(119.7 -83.48)"/></g></g></g><g style="isolation:isolate"><g style="clip-path:url(#clip-path-4)"><g style="isolation:isolate"><path d="M65.82,301.29,43,288.89a2.34,2.34,0,0,1-.94-2.56,1.49,1.49,0,0,1,.09-.3L65,298.43q0,.13-.09.3a2.35,2.35,0,0,0,.94,2.56" transform="translate(119.7 -83.48)"/><path d="M65,298.43,42.18,286a2,2,0,0,1,.16-.36l22.79,12.4a3,3,0,0,0-.16.36" transform="translate(119.7 -83.48)"/><path d="M65.13,298.07l-22.79-12.4a2.46,2.46,0,0,1,.17-.27L65.3,297.8a2.46,2.46,0,0,0-.17.27" transform="translate(119.7 -83.48)"/><path d="M65.3,297.8,42.51,285.4c.05-.08.12-.16.18-.24l22.8,12.4a2.23,2.23,0,0,0-.19.24" transform="translate(119.7 -83.48)"/><path d="M65.49,297.56l-22.8-12.4a2.28,2.28,0,0,1,.22-.22l22.79,12.4a2.18,2.18,0,0,0-.21.22" transform="translate(119.7 -83.48)"/><path d="M65.7,297.34l-22.79-12.4.27-.21L66,297.13l-.27.21" transform="translate(119.7 -83.48)"/><path d="M66,297.13l-22.79-12.4a2.88,2.88,0,0,1,.38-.22l22.8,12.4a2.46,2.46,0,0,0-.39.22" transform="translate(119.7 -83.48)"/><path d="M66.36,296.91l-22.8-12.4a2.57,2.57,0,0,1,1.27-.25c1.51.1,3,.18,4.54.23A222.28,222.28,0,0,0,87.77,282l.74-.1c13.79-2,27.57-4.7,41.32-7.6,13.51-2.84,27-5.86,40.53-8.46,7-1.35,14-2.6,21.06-3.59l22.79,12.4c-7,1-14,2.24-21.05,3.59-13.53,2.6-27,5.62-40.53,8.46-13.76,2.9-27.54,5.64-41.33,7.6l-.74.1a222.28,222.28,0,0,1-38.4,2.51c-1.51-.05-3-.13-4.54-.23a2.9,2.9,0,0,0-.51,0,2.83,2.83,0,0,0-.75.23" transform="translate(119.7 -83.48)"/></g></g></g><path d="M214.21,274.63c5.47-.77,10.93-1.38,16.38-1.75,10.91-.77,21.93-.66,32.31,1.77a2.14,2.14,0,0,1,1.55,2.74,2.86,2.86,0,0,1-2.16,2.08,1.68,1.68,0,0,1-.59,0c-1.16-.27-2.33-.52-3.51-.74-10.58-1.92-21.56-1.67-32.56-.62-3.86.36-7.71.83-11.57,1.37-8.88,1.25-17.76,2.9-26.63,4.68-13.59,2.73-27.17,5.78-40.77,8.59-11.9,2.45-23.82,4.73-35.74,6.4-1.76.25-3.52.48-5.28.7a207.56,207.56,0,0,1-39.21,1.63c-1.19-.07-1.85-1.52-1.55-2.73a2.7,2.7,0,0,1,2.23-2.05,2.9,2.9,0,0,1,.51,0c1.52.1,3,.18,4.54.23a222.28,222.28,0,0,0,38.4-2.51l.74-.1c13.79-2,27.57-4.7,41.33-7.6,13.5-2.84,27-5.86,40.53-8.46C200.17,276.87,207.19,275.62,214.21,274.63Z" transform="translate(119.7 -83.48)"/></g><g style="isolation:isolate"><g style="isolation:isolate"><g style="clip-path:url(#clip-path-5)"><g style="isolation:isolate"><path d="M247.84,320.79l-22.79-12.4c8.31-1.17,16.63-2.1,24.93-2.68,16.6-1.16,33.34-1,49.11,2.71h0l22.79,12.4h0c-15.77-3.7-32.51-3.87-49.11-2.71-8.3.58-16.61,1.51-24.93,2.68" transform="translate(119.7 -83.48)"/><path d="M321.92,320.83l-22.79-12.4a2.24,2.24,0,0,1,.39.14l22.8,12.4a2.08,2.08,0,0,0-.4-.14" transform="translate(119.7 -83.48)"/><path d="M322.32,321l-22.8-12.4.08,0L322.39,321l-.07,0" transform="translate(119.7 -83.48)"/></g></g></g><g style="isolation:isolate"><g style="clip-path:url(#clip-path-6)"><g style="isolation:isolate"><path d="M23,354.48.16,342.08c2.78.14,5.1.25,7.43.34,19.58.67,39.48-1.1,59.31-3.88l.75-.11c21-3,41.95-7.15,62.88-11.55,20.74-4.37,41.46-9,62.21-13,10.76-2.06,21.53-4,32.31-5.49l22.79,12.4c-10.77,1.51-21.55,3.42-32.3,5.49-20.76,4-41.48,8.63-62.21,13-20.94,4.4-41.91,8.58-62.89,11.55l-.75.11c-19.82,2.78-39.73,4.55-59.31,3.88-2.32-.09-4.65-.2-7.43-.34" transform="translate(119.7 -83.48)"/></g></g></g><g style="isolation:isolate"><g style="clip-path:url(#clip-path-7)"><g style="isolation:isolate"><path d="M21.45,359.06l-22.79-12.4A2.1,2.1,0,0,1-2,344l22.79,12.4a2.12,2.12,0,0,0,.63,2.66" transform="translate(119.7 -83.48)"/><path d="M20.82,356.4-2,344a3.82,3.82,0,0,1,.21-.46L21,355.94a3.82,3.82,0,0,0-.21.46" transform="translate(119.7 -83.48)"/><path d="M21,355.94l-22.79-12.4a3.62,3.62,0,0,1,.2-.33l22.79,12.4a2.63,2.63,0,0,0-.2.33" transform="translate(119.7 -83.48)"/><path d="M21.23,355.61l-22.79-12.4a3,3,0,0,1,.22-.28l22.79,12.4a3,3,0,0,0-.22.28" transform="translate(119.7 -83.48)"/><path d="M21.45,355.33l-22.79-12.4.23-.24,22.8,12.4-.24.24" transform="translate(119.7 -83.48)"/><path d="M21.69,355.09l-22.8-12.4.27-.21L22,354.88a2.65,2.65,0,0,0-.26.21" transform="translate(119.7 -83.48)"/><path d="M22,354.88-.84,342.48a1.58,1.58,0,0,1,.36-.2l22.79,12.4a1.82,1.82,0,0,0-.36.2" transform="translate(119.7 -83.48)"/><path d="M22.31,354.68-.48,342.28a2.28,2.28,0,0,1,.64-.2L23,354.48a2.28,2.28,0,0,0-.64.2" transform="translate(119.7 -83.48)"/></g></g></g><path d="M247.84,320.79c8.32-1.17,16.63-2.1,24.93-2.68,16.6-1.16,33.34-1,49.11,2.71,2.43.57,1.71,4.53-.45,4.84a2.09,2.09,0,0,1-.74,0c-1.78-.42-3.58-.79-5.39-1.13-16.2-2.95-33.17-2.55-50-1-5.88.55-11.77,1.26-17.66,2.09-13.49,1.9-27,4.41-40.45,7.1-20.87,4.18-41.71,8.87-62.57,13.18-18.21,3.75-36.45,7.24-54.69,9.8-2.68.38-5.35.73-8,1.07-20,2.5-40,3.77-59.66,2.5-2.65-.18-1.73-4.44.72-4.79,2.78.14,5.11.25,7.43.34,19.58.67,39.49-1.1,59.31-3.88l.75-.11c21-3,41.95-7.15,62.89-11.55,20.73-4.37,41.45-9,62.21-13C226.29,324.21,237.07,322.3,247.84,320.79Z" transform="translate(119.7 -83.48)"/></g><g style="isolation:isolate"><g style="isolation:isolate"><g style="clip-path:url(#clip-path-8)"><g style="isolation:isolate"><path d="M177.79,335.89,155,323.49a1.75,1.75,0,0,1,.56,0l.18,0,22.8,12.4-.19,0a1.69,1.69,0,0,0-.55,0" transform="translate(119.7 -83.48)"/><path d="M178.53,335.93l-22.8-12.4a1.7,1.7,0,0,1,.34.12l22.8,12.4a2,2,0,0,0-.34-.12" transform="translate(119.7 -83.48)"/><path d="M178.87,336.05l-22.8-12.4.07,0,22.79,12.39-.06,0" transform="translate(119.7 -83.48)"/></g></g></g><g style="isolation:isolate"><g style="clip-path:url(#clip-path-9)"><g style="isolation:isolate"><path d="M174.93,405.19l-22.79-12.4a2.18,2.18,0,0,1-1-2.55,46.93,46.93,0,0,0,1.8-12.13c.64-17.62-3.22-34.69-.15-52.56a2.38,2.38,0,0,1,.11-.38l22.79,12.4a1.64,1.64,0,0,0-.1.38c-3.07,17.87.78,34.94.15,52.56a46.94,46.94,0,0,1-1.81,12.13,2.18,2.18,0,0,0,1,2.55" transform="translate(119.7 -83.48)"/><path d="M175.7,337.57l-22.79-12.4a1.36,1.36,0,0,1,.13-.3l22.79,12.4a2.08,2.08,0,0,0-.13.3" transform="translate(119.7 -83.48)"/><path d="M175.83,337.27,153,324.87a2.13,2.13,0,0,1,.16-.25L176,337a2.13,2.13,0,0,0-.16.25" transform="translate(119.7 -83.48)"/><path d="M176,337l-22.79-12.4a1.3,1.3,0,0,1,.18-.23l22.79,12.39L176,337" transform="translate(119.7 -83.48)"/><path d="M176.17,336.78l-22.79-12.39a2.39,2.39,0,0,1,.22-.23l22.79,12.4-.22.22" transform="translate(119.7 -83.48)"/><path d="M176.39,336.56l-22.79-12.4.29-.23,22.79,12.4-.29.23" transform="translate(119.7 -83.48)"/><path d="M176.68,336.33l-22.79-12.4a3.18,3.18,0,0,1,.4-.23l22.79,12.4a3.18,3.18,0,0,0-.4.23" transform="translate(119.7 -83.48)"/><path d="M177.08,336.1l-22.79-12.4a2.34,2.34,0,0,1,.7-.21l22.8,12.4a2.31,2.31,0,0,0-.71.21" transform="translate(119.7 -83.48)"/></g></g></g><path d="M177.79,335.89a1.69,1.69,0,0,1,.55,0c1.22.19,1.77,1.43,1.55,2.73a84.55,84.55,0,0,0-1,14.59c0,9,.89,17.81,1.26,26.72.31,7.61.46,15.72-1.88,23.39a2.85,2.85,0,0,1-2.16,2.06,1.88,1.88,0,0,1-.58,0,2.12,2.12,0,0,1-1.55-2.74,46.94,46.94,0,0,0,1.81-12.13c.63-17.62-3.22-34.69-.15-52.56A2.66,2.66,0,0,1,177.79,335.89Z" transform="translate(119.7 -83.48)"/></g><g style="isolation:isolate"><g style="isolation:isolate"><g style="clip-path:url(#clip-path-10)"><g style="isolation:isolate"><path d="M83.59,380.66l-22.8-12.4a1.63,1.63,0,0,1,.54,0l.19,0,22.8,12.4-.19,0a1.63,1.63,0,0,0-.54,0" transform="translate(119.7 -83.48)"/><path d="M84.32,380.7l-22.8-12.4a1.7,1.7,0,0,1,.34.12l22.8,12.4a2,2,0,0,0-.34-.12" transform="translate(119.7 -83.48)"/><path d="M84.66,380.82l-22.8-12.4.06,0,22.8,12.4-.06,0" transform="translate(119.7 -83.48)"/></g></g></g><g style="isolation:isolate"><g style="clip-path:url(#clip-path-11)"><g style="isolation:isolate"><path d="M79.83,484.91,57,472.51A2.18,2.18,0,0,1,56,470a72.3,72.3,0,0,0,2.81-18.67c.52-13.46-.77-26.69-1.5-39.93-.73-13.5-1.14-27.27,1.25-41.06a2.36,2.36,0,0,1,.1-.38l22.79,12.39a2.79,2.79,0,0,0-.1.39c-2.39,13.79-2,27.56-1.24,41.06.72,13.24,2,26.47,1.49,39.93a72.72,72.72,0,0,1-2.8,18.67,2.15,2.15,0,0,0,1,2.53" transform="translate(119.7 -83.48)"/><path d="M81.49,382.33,58.7,369.94a2.08,2.08,0,0,1,.13-.3L81.63,382a2.59,2.59,0,0,0-.14.29" transform="translate(119.7 -83.48)"/><path d="M81.63,382l-22.8-12.4a2.13,2.13,0,0,1,.16-.25l22.79,12.4a1.28,1.28,0,0,0-.15.25" transform="translate(119.7 -83.48)"/><path d="M81.78,381.79,59,369.39a1.3,1.3,0,0,1,.18-.23L82,381.56l-.18.23" transform="translate(119.7 -83.48)"/><path d="M82,381.56l-22.79-12.4a2.28,2.28,0,0,1,.22-.22l22.8,12.4a2.39,2.39,0,0,0-.23.22" transform="translate(119.7 -83.48)"/><path d="M82.19,381.34l-22.8-12.4a2.09,2.09,0,0,1,.29-.23l22.79,12.4a2,2,0,0,0-.28.23" transform="translate(119.7 -83.48)"/><path d="M82.47,381.11l-22.79-12.4a3.38,3.38,0,0,1,.41-.24l22.79,12.4a3.38,3.38,0,0,0-.41.24" transform="translate(119.7 -83.48)"/><path d="M82.88,380.87l-22.79-12.4a2.67,2.67,0,0,1,.7-.21l22.8,12.4a2.31,2.31,0,0,0-.71.21" transform="translate(119.7 -83.48)"/></g></g></g><path d="M83.59,380.66a1.63,1.63,0,0,1,.54,0c1.22.19,1.77,1.42,1.55,2.74A131.19,131.19,0,0,0,84,405.79c0,13.88,1.34,27.51,1.93,41.29.49,11.68.78,24.18-2.85,36A2.84,2.84,0,0,1,81,485.11a1.88,1.88,0,0,1-.58,0,2.12,2.12,0,0,1-1.55-2.73,72.72,72.72,0,0,0,2.8-18.67c.52-13.46-.77-26.69-1.49-39.93-.74-13.5-1.15-27.27,1.24-41.06A2.67,2.67,0,0,1,83.59,380.66Z" transform="translate(119.7 -83.48)"/></g><g style="isolation:isolate"><g style="isolation:isolate"><g style="clip-path:url(#clip-path-12)"><g style="isolation:isolate"><path d="M228.85,458.74l-22.79-12.4c5.45-.77,10.91-1.38,16.35-1.76,10.92-.75,21.94-.65,32.31,1.78h.05l22.8,12.4h-.06c-10.37-2.43-21.39-2.53-32.31-1.78-5.44.38-10.89,1-16.35,1.76" transform="translate(119.7 -83.48)"/><path d="M277.57,458.77l-22.8-12.4a1.92,1.92,0,0,1,.42.16L278,458.93a2.05,2.05,0,0,0-.41-.16" transform="translate(119.7 -83.48)"/><path d="M278,458.93l-22.79-12.4.08,0L278.06,459a.2.2,0,0,0-.08,0" transform="translate(119.7 -83.48)"/></g></g></g><g style="isolation:isolate"><g style="clip-path:url(#clip-path-13)"><g style="isolation:isolate"><path d="M80.44,485.4,57.65,473a2.34,2.34,0,0,1-.95-2.56q0-.17.09-.3l22.8,12.4a1.32,1.32,0,0,0-.09.3,2.34,2.34,0,0,0,.94,2.56" transform="translate(119.7 -83.48)"/><path d="M79.59,482.54l-22.8-12.4a2,2,0,0,1,.17-.36l22.79,12.4a2,2,0,0,0-.16.36" transform="translate(119.7 -83.48)"/><path d="M79.75,482.18,57,469.78a1.75,1.75,0,0,1,.16-.27l22.8,12.4a1.78,1.78,0,0,0-.17.27" transform="translate(119.7 -83.48)"/><path d="M79.92,481.91l-22.8-12.4a2.23,2.23,0,0,1,.19-.24l22.79,12.4a1.5,1.5,0,0,0-.18.24" transform="translate(119.7 -83.48)"/><path d="M80.1,481.67l-22.79-12.4.21-.22,22.8,12.4a2.28,2.28,0,0,0-.22.22" transform="translate(119.7 -83.48)"/><path d="M80.32,481.45l-22.8-12.4.27-.21,22.79,12.4-.26.21" transform="translate(119.7 -83.48)"/><path d="M80.58,481.24l-22.79-12.4a2.88,2.88,0,0,1,.38-.22L81,481a3,3,0,0,0-.39.22" transform="translate(119.7 -83.48)"/><path d="M81,481l-22.8-12.4a2.64,2.64,0,0,1,.76-.22,2.24,2.24,0,0,1,.52,0c1.51.09,3,.17,4.54.22,12.74.45,25.72-.73,38.63-2.54l.51-.07c13.78-2,27.56-4.71,41.32-7.6,13.51-2.85,27-5.87,40.53-8.47,7-1.34,14.05-2.59,21.08-3.58l22.79,12.4c-7,1-14.06,2.23-21.08,3.58-13.52,2.6-27,5.62-40.53,8.47-13.75,2.89-27.53,5.64-41.32,7.6l-.51.07c-12.91,1.81-25.88,3-38.63,2.54-1.51-.05-3-.13-4.54-.22a1.82,1.82,0,0,0-.52,0A2.49,2.49,0,0,0,81,481" transform="translate(119.7 -83.48)"/></g></g></g><path d="M228.85,458.74c5.46-.77,10.91-1.38,16.35-1.76,10.92-.75,21.94-.65,32.31,1.78a2.13,2.13,0,0,1,1.55,2.73,2.87,2.87,0,0,1-2.14,2.09,1.52,1.52,0,0,1-.6,0c-1.16-.27-2.34-.51-3.51-.73-10.58-1.93-21.57-1.67-32.56-.63-3.83.36-7.66.83-11.49,1.37-8.91,1.25-17.82,2.91-26.71,4.69-13.59,2.72-27.17,5.78-40.77,8.58-11.9,2.46-23.82,4.74-35.74,6.42-1.76.24-3.52.48-5.28.7A209.35,209.35,0,0,1,81,485.58c-1.18-.09-1.84-1.52-1.54-2.74a2.67,2.67,0,0,1,2.22-2,1.82,1.82,0,0,1,.52,0c1.51.09,3,.17,4.54.22,12.75.45,25.72-.73,38.63-2.54l.51-.07c13.79-2,27.57-4.71,41.32-7.6,13.51-2.85,27-5.87,40.53-8.47C214.79,461,221.82,459.73,228.85,458.74Z" transform="translate(119.7 -83.48)"/></g><g style="isolation:isolate"><g style="isolation:isolate"><g style="clip-path:url(#clip-path-14)"><g style="isolation:isolate"><path d="M554.17,173.8l-22.79-12.4c5.46-.77,10.93-1.38,16.38-1.76,10.92-.76,21.94-.65,32.31,1.77h0l22.79,12.4h0c-10.37-2.42-21.39-2.53-32.31-1.77-5.45.38-10.91,1-16.38,1.76" transform="translate(119.7 -83.48)"/><path d="M602.9,173.82l-22.79-12.4a1.92,1.92,0,0,1,.42.16l22.8,12.4a2.23,2.23,0,0,0-.43-.16" transform="translate(119.7 -83.48)"/><path d="M603.33,174l-22.8-12.4a.2.2,0,0,1,.08,0l22.8,12.4-.08,0" transform="translate(119.7 -83.48)"/></g></g></g><g style="isolation:isolate"><g style="clip-path:url(#clip-path-15)"><g style="isolation:isolate"><path d="M405.79,200.45,383,188.05a2.33,2.33,0,0,1-.95-2.55q0-.17.09-.3l22.8,12.4a1.32,1.32,0,0,0-.09.3,2.33,2.33,0,0,0,.94,2.55" transform="translate(119.7 -83.48)"/><path d="M404.94,197.6l-22.8-12.4a2,2,0,0,1,.17-.36l22.79,12.4a2,2,0,0,0-.16.36" transform="translate(119.7 -83.48)"/><path d="M405.1,197.24l-22.79-12.4a1.75,1.75,0,0,1,.16-.27l22.8,12.4a1.78,1.78,0,0,0-.17.27" transform="translate(119.7 -83.48)"/><path d="M405.27,197l-22.8-12.4a2.23,2.23,0,0,1,.19-.24l22.79,12.4a1.5,1.5,0,0,0-.18.24" transform="translate(119.7 -83.48)"/><path d="M405.45,196.73l-22.79-12.4.21-.22,22.8,12.4a2.28,2.28,0,0,0-.22.22" transform="translate(119.7 -83.48)"/><path d="M405.67,196.51l-22.8-12.4.27-.21,22.79,12.4-.26.21" transform="translate(119.7 -83.48)"/><path d="M405.93,196.3l-22.79-12.4a2.88,2.88,0,0,1,.38-.22l22.8,12.4a3,3,0,0,0-.39.22" transform="translate(119.7 -83.48)"/><path d="M406.32,196.08l-22.8-12.4a2.64,2.64,0,0,1,.76-.22,2.24,2.24,0,0,1,.52,0c1.5.09,3,.17,4.54.22a223.16,223.16,0,0,0,38.39-2.51l.75-.11c13.78-1.95,27.56-4.7,41.32-7.6,13.51-2.84,27-5.86,40.53-8.46,7-1.35,14-2.6,21.05-3.58l22.79,12.4c-7,1-14,2.23-21,3.58-13.52,2.6-27,5.62-40.53,8.46-13.75,2.9-27.53,5.64-41.32,7.6l-.74.1a222.36,222.36,0,0,1-38.4,2.52c-1.52-.05-3-.13-4.54-.22a1.82,1.82,0,0,0-.52,0,2.49,2.49,0,0,0-.75.22" transform="translate(119.7 -83.48)"/></g></g></g><path d="M554.17,173.8c5.47-.77,10.93-1.38,16.38-1.76,10.92-.76,21.94-.65,32.31,1.77a2.14,2.14,0,0,1,1.55,2.74,2.84,2.84,0,0,1-2.15,2.08,1.46,1.46,0,0,1-.59,0c-1.17-.27-2.34-.52-3.51-.73-10.58-1.93-21.57-1.67-32.56-.63q-5.79.56-11.57,1.38c-8.88,1.24-17.77,2.9-26.63,4.67-13.59,2.73-27.17,5.78-40.77,8.59-12,2.46-23.93,4.75-35.91,6.44-1.71.24-3.41.46-5.11.68a208.5,208.5,0,0,1-39.22,1.62c-1.18-.08-1.84-1.52-1.54-2.73a2.67,2.67,0,0,1,2.22-2,1.82,1.82,0,0,1,.52,0c1.5.09,3,.17,4.54.22a222.36,222.36,0,0,0,38.4-2.52l.74-.1c13.79-2,27.57-4.7,41.32-7.6,13.51-2.84,27-5.86,40.53-8.46C540.13,176,547.15,174.78,554.17,173.8Z" transform="translate(119.7 -83.48)"/></g><g style="isolation:isolate"><g style="isolation:isolate"><g style="clip-path:url(#clip-path-16)"><g style="isolation:isolate"><path d="M406.2,196l-22.79-12.39a1.63,1.63,0,0,1,.54,0l.19,0L406.93,196l-.19,0a2.44,2.44,0,0,0-.54,0" transform="translate(119.7 -83.48)"/><path d="M406.93,196l-22.79-12.4.34.13,22.79,12.4a2,2,0,0,0-.34-.13" transform="translate(119.7 -83.48)"/><path d="M407.27,196.17l-22.79-12.4.06,0,22.79,12.4-.06,0" transform="translate(119.7 -83.48)"/></g></g></g><g style="isolation:isolate"><g style="clip-path:url(#clip-path-17)"><g style="isolation:isolate"><path d="M402.43,300.26l-22.79-12.4a2.17,2.17,0,0,1-1-2.54,72.15,72.15,0,0,0,2.8-18.66c.53-13.47-.76-26.68-1.49-39.93-.74-13.51-1.14-27.27,1.24-41.06,0-.13.06-.26.1-.38l22.8,12.4a1.64,1.64,0,0,0-.1.38c-2.38,13.79-2,27.55-1.25,41.05.73,13.26,2,26.47,1.5,39.94a72.59,72.59,0,0,1-2.81,18.66,2.18,2.18,0,0,0,1,2.54" transform="translate(119.7 -83.48)"/><path d="M404.11,197.69l-22.8-12.4c0-.1.09-.2.14-.3l22.79,12.4a2.71,2.71,0,0,0-.13.3" transform="translate(119.7 -83.48)"/><path d="M404.24,197.39,381.45,185l.15-.25,22.8,12.4a2.13,2.13,0,0,0-.16.25" transform="translate(119.7 -83.48)"/><path d="M404.4,197.14l-22.8-12.4a2.11,2.11,0,0,1,.19-.23l22.79,12.4a1.3,1.3,0,0,0-.18.23" transform="translate(119.7 -83.48)"/><path d="M404.58,196.91l-22.79-12.4a2.39,2.39,0,0,1,.22-.23l22.79,12.4a2.39,2.39,0,0,0-.22.23" transform="translate(119.7 -83.48)"/><path d="M404.8,196.68,382,184.28l.29-.23,22.79,12.4-.29.23" transform="translate(119.7 -83.48)"/><path d="M405.09,196.45l-22.79-12.4a3.18,3.18,0,0,1,.4-.23l22.8,12.4a3.3,3.3,0,0,0-.41.23" transform="translate(119.7 -83.48)"/><path d="M405.5,196.22l-22.8-12.4a2.31,2.31,0,0,1,.71-.21L406.2,196a2.7,2.7,0,0,0-.7.22" transform="translate(119.7 -83.48)"/></g></g></g><path d="M406.2,196a2.44,2.44,0,0,1,.54,0c1.23.2,1.78,1.43,1.55,2.74a131.34,131.34,0,0,0-1.64,22.39c0,13.89,1.35,27.53,1.93,41.3.49,11.68.78,24.18-2.84,36a2.84,2.84,0,0,1-2.15,2.07,2.34,2.34,0,0,1-.59,0,2.11,2.11,0,0,1-1.55-2.73,72.59,72.59,0,0,0,2.81-18.66c.53-13.47-.77-26.68-1.5-39.94-.73-13.5-1.13-27.26,1.25-41.05A2.67,2.67,0,0,1,406.2,196Z" transform="translate(119.7 -83.48)"/></g><g style="isolation:isolate"><g style="isolation:isolate"><g style="clip-path:url(#clip-path-18)"><g style="isolation:isolate"><path d="M551.63,274.69l-22.79-12.4c5.46-.77,10.92-1.38,16.37-1.76,10.92-.76,21.94-.65,32.31,1.78h.06l22.79,12.4h0c-10.38-2.43-21.4-2.54-32.31-1.78-5.45.38-10.91,1-16.38,1.76" transform="translate(119.7 -83.48)"/><path d="M600.37,274.72l-22.79-12.4a1.92,1.92,0,0,1,.42.16l22.79,12.4a1.92,1.92,0,0,0-.42-.16" transform="translate(119.7 -83.48)"/><path d="M600.79,274.88,578,262.48l.07,0,22.8,12.4-.08,0" transform="translate(119.7 -83.48)"/></g></g></g><g style="isolation:isolate"><g style="clip-path:url(#clip-path-19)"><g style="isolation:isolate"><path d="M403.24,301.34l-22.79-12.4a2.33,2.33,0,0,1-.94-2.55,1.32,1.32,0,0,1,.09-.3l22.79,12.4a2.13,2.13,0,0,0-.09.3,2.34,2.34,0,0,0,.94,2.55" transform="translate(119.7 -83.48)"/><path d="M402.39,298.49l-22.79-12.4a2,2,0,0,1,.16-.36l22.79,12.4a3,3,0,0,0-.16.36" transform="translate(119.7 -83.48)"/><path d="M402.55,298.13l-22.79-12.4a1.78,1.78,0,0,1,.17-.27l22.79,12.4a1.78,1.78,0,0,0-.17.27" transform="translate(119.7 -83.48)"/><path d="M402.72,297.86l-22.79-12.4a2.15,2.15,0,0,1,.18-.24l22.79,12.4a2.5,2.5,0,0,0-.18.24" transform="translate(119.7 -83.48)"/><path d="M402.9,297.62l-22.79-12.4a2.28,2.28,0,0,1,.22-.22l22.79,12.4-.22.22" transform="translate(119.7 -83.48)"/><path d="M403.12,297.4,380.33,285l.26-.21,22.8,12.4-.27.21" transform="translate(119.7 -83.48)"/><path d="M403.39,297.19l-22.8-12.4a3,3,0,0,1,.39-.22L403.77,297a2.88,2.88,0,0,0-.38.22" transform="translate(119.7 -83.48)"/><path d="M403.77,297,381,284.57a2.49,2.49,0,0,1,.75-.22,2.27,2.27,0,0,1,.52,0c1.51.09,3,.17,4.54.22,12.75.45,25.72-.73,38.63-2.54l.51-.07c13.79-2,27.57-4.71,41.32-7.61,13.51-2.84,27-5.86,40.53-8.46,7-1.35,14-2.6,21.06-3.58l22.79,12.4c-7,1-14,2.23-21.06,3.58-13.52,2.6-27,5.62-40.53,8.46-13.75,2.9-27.53,5.64-41.32,7.61l-.51.07c-12.9,1.81-25.88,3-38.63,2.54-1.51-.05-3-.13-4.54-.22a1.75,1.75,0,0,0-.51,0,2.55,2.55,0,0,0-.76.22" transform="translate(119.7 -83.48)"/></g></g></g><path d="M551.63,274.69c5.47-.77,10.93-1.38,16.38-1.76,10.91-.76,21.93-.65,32.31,1.78a2.14,2.14,0,0,1,1.55,2.73,2.87,2.87,0,0,1-2.16,2.08,1.47,1.47,0,0,1-.59,0c-1.16-.27-2.33-.52-3.51-.73-10.58-1.93-21.56-1.67-32.56-.63q-5.77.56-11.55,1.37c-8.89,1.25-17.78,2.91-26.65,4.69-13.59,2.72-27.17,5.78-40.77,8.58-11.94,2.47-23.9,4.75-35.86,6.43q-2.58.36-5.16.69a209.23,209.23,0,0,1-39.21,1.62c-1.19-.08-1.85-1.52-1.55-2.73a2.69,2.69,0,0,1,2.23-2,1.75,1.75,0,0,1,.51,0c1.51.09,3,.17,4.54.22,12.75.45,25.73-.73,38.63-2.54l.51-.07c13.79-2,27.57-4.71,41.32-7.61,13.51-2.84,27-5.86,40.53-8.46C537.58,276.92,544.61,275.67,551.63,274.69Z" transform="translate(119.7 -83.48)"/></g><g style="isolation:isolate"><g style="isolation:isolate"><g style="clip-path:url(#clip-path-20)"><g style="isolation:isolate"><path d="M601.37,175.24l-22.79-12.4a1.63,1.63,0,0,1,.54,0l.19,0,22.79,12.4-.19,0a1.63,1.63,0,0,0-.54,0" transform="translate(119.7 -83.48)"/><path d="M602.1,175.28l-22.79-12.4a1.4,1.4,0,0,1,.34.13l22.79,12.4a1.26,1.26,0,0,0-.34-.13" transform="translate(119.7 -83.48)"/><path d="M602.44,175.41,579.65,163l.06,0,22.8,12.4-.07,0" transform="translate(119.7 -83.48)"/></g></g></g><g style="isolation:isolate"><g style="clip-path:url(#clip-path-21)"><g style="isolation:isolate"><path d="M597.61,279.5l-22.79-12.4a2.2,2.2,0,0,1-1-2.55,72.59,72.59,0,0,0,2.81-18.66c.53-13.46-.77-26.68-1.5-39.93-.73-13.5-1.14-27.26,1.25-41.06a1.56,1.56,0,0,1,.1-.37l22.79,12.39a2.66,2.66,0,0,0-.1.38c-2.39,13.8-2,27.56-1.25,41.06.73,13.25,2,26.47,1.5,39.93A72.16,72.16,0,0,1,596.62,277a2.2,2.2,0,0,0,1,2.55" transform="translate(119.7 -83.48)"/><path d="M599.28,176.92l-22.79-12.39a2.88,2.88,0,0,1,.13-.31l22.8,12.4c0,.1-.1.2-.14.3" transform="translate(119.7 -83.48)"/><path d="M599.42,176.62l-22.8-12.4c0-.08.1-.17.16-.25l22.79,12.4c-.05.08-.11.17-.15.25" transform="translate(119.7 -83.48)"/><path d="M599.57,176.37,576.78,164l.18-.23,22.8,12.4a2.11,2.11,0,0,0-.19.23" transform="translate(119.7 -83.48)"/><path d="M599.76,176.14,577,163.74a2.5,2.5,0,0,1,.23-.23L600,175.91a2.39,2.39,0,0,0-.22.23" transform="translate(119.7 -83.48)"/><path d="M600,175.91l-22.79-12.4a2,2,0,0,1,.29-.22l22.79,12.39-.29.23" transform="translate(119.7 -83.48)"/><path d="M600.27,175.68l-22.79-12.39a3.26,3.26,0,0,1,.4-.24l22.79,12.4c-.14.07-.27.15-.4.23" transform="translate(119.7 -83.48)"/><path d="M600.67,175.45l-22.79-12.4a2.56,2.56,0,0,1,.7-.21l22.79,12.4a2.34,2.34,0,0,0-.7.21" transform="translate(119.7 -83.48)"/></g></g></g><path d="M601.37,175.24a1.63,1.63,0,0,1,.54,0c1.23.19,1.78,1.43,1.55,2.73a132.54,132.54,0,0,0-1.63,22.4c0,13.88,1.34,27.52,1.92,41.3.49,11.68.78,24.18-2.83,36a2.84,2.84,0,0,1-2.16,2.06,1.94,1.94,0,0,1-.59,0,2.13,2.13,0,0,1-1.55-2.74,72.16,72.16,0,0,0,2.81-18.66c.53-13.46-.77-26.68-1.5-39.93-.73-13.5-1.14-27.26,1.25-41.06A2.67,2.67,0,0,1,601.37,175.24Z" transform="translate(119.7 -83.48)"/></g><g style="isolation:isolate"><g style="isolation:isolate"><g style="clip-path:url(#clip-path-22)"><g style="isolation:isolate"><path d="M583.82,310.79,561,298.39c8.31-1.17,16.63-2.1,24.93-2.68,16.6-1.16,33.34-1,49.11,2.71h0l22.79,12.4h0c-15.77-3.7-32.51-3.87-49.11-2.71-8.3.58-16.61,1.51-24.93,2.68" transform="translate(119.7 -83.48)"/><path d="M657.91,310.83l-22.79-12.4a3.54,3.54,0,0,1,.39.14L658.3,311a3.54,3.54,0,0,0-.39-.14" transform="translate(119.7 -83.48)"/><path d="M658.3,311l-22.79-12.4.07,0,22.8,12.4-.08,0" transform="translate(119.7 -83.48)"/></g></g></g><g style="isolation:isolate"><g style="clip-path:url(#clip-path-23)"><g style="isolation:isolate"><path d="M358.93,344.49l-22.79-12.4c2.78.13,5.1.24,7.42.32,19.66.69,39.65-1.11,59.56-3.91,21.49-3,42.46-7.22,63.39-11.62,20.74-4.37,41.46-9,62.21-13,10.76-2.06,21.53-4,32.31-5.49l22.79,12.4c-10.77,1.51-21.55,3.43-32.3,5.49-20.76,4-41.48,8.63-62.21,13-20.94,4.4-41.91,8.58-63.4,11.62-19.9,2.8-39.89,4.59-59.55,3.91-2.32-.08-4.65-.19-7.43-.32" transform="translate(119.7 -83.48)"/></g></g></g><g style="isolation:isolate"><g style="clip-path:url(#clip-path-24)"><g style="isolation:isolate"><path d="M357.43,349.06l-22.79-12.4A2.1,2.1,0,0,1,334,334l22.79,12.4a2.12,2.12,0,0,0,.63,2.66" transform="translate(119.7 -83.48)"/><path d="M356.8,346.4,334,334a3.76,3.76,0,0,1,.2-.46l22.8,12.4a3.82,3.82,0,0,0-.21.46" transform="translate(119.7 -83.48)"/><path d="M357,345.94l-22.8-12.4.21-.33,22.79,12.4a3.62,3.62,0,0,0-.2.33" transform="translate(119.7 -83.48)"/><path d="M357.21,345.61l-22.79-12.4a3,3,0,0,1,.22-.28l22.79,12.4a3,3,0,0,0-.22.28" transform="translate(119.7 -83.48)"/><path d="M357.43,345.33l-22.79-12.4.23-.24,22.8,12.4-.24.24" transform="translate(119.7 -83.48)"/><path d="M357.67,345.09l-22.8-12.4.27-.21,22.79,12.4-.26.21" transform="translate(119.7 -83.48)"/><path d="M357.93,344.88l-22.79-12.4a1.75,1.75,0,0,1,.35-.2l22.8,12.4a1.58,1.58,0,0,0-.36.2" transform="translate(119.7 -83.48)"/><path d="M358.29,344.68l-22.8-12.4a2,2,0,0,1,.65-.19l22.79,12.4a2,2,0,0,0-.64.19" transform="translate(119.7 -83.48)"/></g></g></g><path d="M583.82,310.79c8.32-1.17,16.63-2.1,24.93-2.68,16.6-1.16,33.34-1,49.11,2.71,2.43.56,1.71,4.53-.44,4.83a2.13,2.13,0,0,1-.75,0c-1.79-.41-3.58-.79-5.39-1.12-16.2-2.95-33.17-2.56-50-1-5.88.55-11.77,1.26-17.66,2.09-13.49,1.9-27,4.41-40.45,7.1-20.87,4.18-41.71,8.87-62.57,13.18-18.21,3.75-36.45,7.24-54.69,9.8-2.68.38-5.35.74-8,1.07-20,2.5-40,3.77-59.66,2.5-2.65-.17-1.73-4.44.72-4.78,2.78.13,5.11.24,7.43.32,19.66.68,39.65-1.11,59.55-3.91,21.49-3,42.46-7.22,63.4-11.62,20.73-4.37,41.45-9,62.21-13C562.27,314.22,573.05,312.3,583.82,310.79Z" transform="translate(119.7 -83.48)"/></g><g style="isolation:isolate"><g style="isolation:isolate"><g style="clip-path:url(#clip-path-25)"><g style="isolation:isolate"><path d="M508.55,327.54l-22.79-12.4a2.36,2.36,0,0,1,.88,0l22.79,12.4a2.16,2.16,0,0,0-.88,0" transform="translate(119.7 -83.48)"/><path d="M509.43,327.58l-22.79-12.4a2.74,2.74,0,0,1,.4.15l22.79,12.4a2.37,2.37,0,0,0-.4-.15" transform="translate(119.7 -83.48)"/><path d="M509.83,327.73,487,315.33l.08,0,22.79,12.4-.08,0" transform="translate(119.7 -83.48)"/></g></g></g><g style="isolation:isolate"><g style="clip-path:url(#clip-path-26)"><g style="isolation:isolate"><path d="M505.84,376.74l-22.79-12.4a2.34,2.34,0,0,1-.79-3l22.79,12.4a2.36,2.36,0,0,0,.79,3" transform="translate(119.7 -83.48)"/><path d="M505.05,373.77l-22.79-12.4c0-.05,0-.11.07-.17.11-.26.22-.53.32-.8l22.79,12.4c-.1.27-.2.54-.32.8a.87.87,0,0,1-.07.17" transform="translate(119.7 -83.48)"/><path d="M505.44,372.8l-22.79-12.4A25.88,25.88,0,0,0,484,352a108.1,108.1,0,0,0-.62-11.28c-.7-7.71-1.55-15.67.38-23.63a3.58,3.58,0,0,1,.11-.35l22.8,12.39a2.47,2.47,0,0,0-.11.36c-1.94,8-1.09,15.92-.39,23.63a105.43,105.43,0,0,1,.62,11.28,25.88,25.88,0,0,1-1.31,8.37" transform="translate(119.7 -83.48)"/><path d="M506.63,329.16l-22.8-12.39a3.34,3.34,0,0,1,.17-.38l22.79,12.4a2.43,2.43,0,0,0-.16.37" transform="translate(119.7 -83.48)"/><path d="M506.79,328.79,484,316.39a2.26,2.26,0,0,1,.16-.26L507,328.52c-.06.09-.12.18-.17.27" transform="translate(119.7 -83.48)"/><path d="M507,328.52l-22.8-12.39a2.13,2.13,0,0,1,.18-.22l22.79,12.4a1.73,1.73,0,0,0-.17.21" transform="translate(119.7 -83.48)"/><path d="M507.13,328.31l-22.79-12.4a1.8,1.8,0,0,1,.19-.2l22.79,12.4-.19.2" transform="translate(119.7 -83.48)"/><path d="M507.32,328.11l-22.79-12.4a1.3,1.3,0,0,1,.23-.18l22.8,12.4-.24.18" transform="translate(119.7 -83.48)"/><path d="M507.56,327.93l-22.8-12.4a1.86,1.86,0,0,1,.33-.19l22.8,12.4a1.35,1.35,0,0,0-.33.19" transform="translate(119.7 -83.48)"/><path d="M507.89,327.74l-22.8-12.4a2.06,2.06,0,0,1,.67-.2l22.79,12.4a2,2,0,0,0-.66.2" transform="translate(119.7 -83.48)"/></g></g></g><path d="M508.55,327.54a2,2,0,0,1,2.26,2.66,41.07,41.07,0,0,0-1,10.13c.05,6.24.94,12.3,1.3,18.48.31,5.49.21,11.28-2.12,16.68a2.49,2.49,0,0,1-1.92,1.44,1.84,1.84,0,0,1-1.12-.16,2.36,2.36,0,0,1-.8-3.17,24.51,24.51,0,0,0,1.63-9.17,105.43,105.43,0,0,0-.62-11.28c-.7-7.71-1.55-15.67.39-23.63A2.44,2.44,0,0,1,508.55,327.54Z" transform="translate(119.7 -83.48)"/></g><g style="isolation:isolate"><g style="isolation:isolate"><g style="clip-path:url(#clip-path-27)"><g style="isolation:isolate"><path d="M566.08,362.57l-22.79-12.4c5.46-.76,10.91-1.37,16.35-1.75,10.93-.77,21.94-.66,32.31,1.78H592l22.79,12.4-.06,0c-10.37-2.43-21.38-2.54-32.31-1.77-5.44.38-10.89,1-16.35,1.75" transform="translate(119.7 -83.48)"/><path d="M614.8,362.61,592,350.21a2.86,2.86,0,0,1,.41.15l22.8,12.4a2.6,2.6,0,0,0-.42-.15" transform="translate(119.7 -83.48)"/><path d="M615.22,362.76l-22.8-12.4.08,0,22.79,12.4-.07,0" transform="translate(119.7 -83.48)"/></g></g></g><g style="isolation:isolate"><g style="clip-path:url(#clip-path-28)"><g style="isolation:isolate"><path d="M417.67,389.23l-22.79-12.4a2.34,2.34,0,0,1-.95-2.56l.09-.3,22.8,12.4a1.71,1.71,0,0,0-.09.3,2.34,2.34,0,0,0,.94,2.56" transform="translate(119.7 -83.48)"/><path d="M416.82,386.37,394,374a2.92,2.92,0,0,1,.17-.36L417,386a2.83,2.83,0,0,0-.16.36" transform="translate(119.7 -83.48)"/><path d="M417,386l-22.79-12.4c.05-.09.1-.18.16-.27l22.8,12.4c-.06.09-.12.18-.17.27" transform="translate(119.7 -83.48)"/><path d="M417.15,385.74l-22.8-12.4a2.11,2.11,0,0,1,.19-.23l22.79,12.4a2,2,0,0,0-.18.23" transform="translate(119.7 -83.48)"/><path d="M417.33,385.51l-22.79-12.4.21-.22,22.8,12.4-.22.22" transform="translate(119.7 -83.48)"/><path d="M417.55,385.29l-22.8-12.4.27-.21,22.79,12.4a1.71,1.71,0,0,0-.26.21" transform="translate(119.7 -83.48)"/><path d="M417.81,385.08,395,372.68a2.08,2.08,0,0,1,.38-.22l22.8,12.4a2.16,2.16,0,0,0-.39.22" transform="translate(119.7 -83.48)"/><path d="M418.2,384.86l-22.8-12.4a2.66,2.66,0,0,1,.76-.23,3,3,0,0,1,.52,0c1.51.1,3,.17,4.54.23a224,224,0,0,0,38.63-2.54l.51-.08c13.78-2,27.56-4.7,41.32-7.59,13.51-2.85,27-5.87,40.53-8.47,7-1.35,14-2.6,21.08-3.59l22.79,12.4c-7,1-14.06,2.24-21.08,3.59-13.52,2.6-27,5.62-40.53,8.47-13.75,2.89-27.53,5.63-41.32,7.59l-.51.08A224,224,0,0,1,424,384.84c-1.51-.06-3-.13-4.54-.23a3,3,0,0,0-.52,0,2.51,2.51,0,0,0-.75.23" transform="translate(119.7 -83.48)"/></g></g></g><path d="M566.08,362.57c5.46-.76,10.91-1.37,16.35-1.75,10.93-.77,21.94-.66,32.31,1.77a2.13,2.13,0,0,1,1.55,2.73,2.86,2.86,0,0,1-2.15,2.09,1.67,1.67,0,0,1-.59,0c-1.16-.27-2.34-.52-3.51-.74-10.58-1.92-21.57-1.67-32.56-.62q-5.75.54-11.49,1.36c-8.91,1.25-17.82,2.91-26.7,4.69-13.6,2.73-27.18,5.79-40.78,8.59-11.94,2.46-23.9,4.74-35.86,6.42q-2.58.38-5.16.69a208.46,208.46,0,0,1-39.22,1.62c-1.18-.07-1.84-1.52-1.54-2.73a2.67,2.67,0,0,1,2.22-2,3,3,0,0,1,.52,0c1.51.1,3,.17,4.54.23a224,224,0,0,0,38.63-2.54l.51-.08c13.79-2,27.57-4.7,41.32-7.59,13.51-2.85,27-5.87,40.53-8.47C552,364.81,559.05,363.56,566.08,362.57Z" transform="translate(119.7 -83.48)"/></g><g style="isolation:isolate"><g style="isolation:isolate"><g style="clip-path:url(#clip-path-29)"><g style="isolation:isolate"><path d="M614.83,363.85,592,351.45a2.35,2.35,0,0,1,.88.05l22.79,12.4a2.35,2.35,0,0,0-.88,0" transform="translate(119.7 -83.48)"/><path d="M615.71,363.9l-22.79-12.4a2.37,2.37,0,0,1,.4.15l22.8,12.4a2,2,0,0,0-.41-.15" transform="translate(119.7 -83.48)"/><path d="M616.12,364.05l-22.8-12.4.08,0,22.79,12.4-.07,0" transform="translate(119.7 -83.48)"/></g></g></g><g style="isolation:isolate"><g style="clip-path:url(#clip-path-30)"><g style="isolation:isolate"><path d="M612.12,413.05l-22.79-12.4a2.33,2.33,0,0,1-.79-3l22.8,12.4a2.34,2.34,0,0,0,.78,3" transform="translate(119.7 -83.48)"/><path d="M611.34,410.09l-22.8-12.4c0-.06.05-.12.07-.17.11-.26.21-.52.31-.78l22.79,12.4c-.09.26-.2.52-.31.78l-.06.17" transform="translate(119.7 -83.48)"/><path d="M611.71,409.14l-22.79-12.4a26,26,0,0,0,1.32-8.4,108.25,108.25,0,0,0-.62-11.28c-.7-7.7-1.55-15.67.39-23.62a3.1,3.1,0,0,1,.1-.36l22.8,12.4a3.07,3.07,0,0,0-.11.36c-1.94,8-1.09,15.92-.39,23.62a105.57,105.57,0,0,1,.62,11.28,25.8,25.8,0,0,1-1.32,8.4" transform="translate(119.7 -83.48)"/><path d="M612.91,365.48l-22.8-12.4a3.17,3.17,0,0,1,.17-.37l22.79,12.4a3.17,3.17,0,0,0-.16.37" transform="translate(119.7 -83.48)"/><path d="M613.07,365.11l-22.79-12.4c.05-.1.11-.19.16-.27l22.8,12.4a1.78,1.78,0,0,0-.17.27" transform="translate(119.7 -83.48)"/><path d="M613.24,364.84l-22.8-12.4.18-.22,22.79,12.4a1.84,1.84,0,0,0-.17.22" transform="translate(119.7 -83.48)"/><path d="M613.41,364.62l-22.79-12.4a1.7,1.7,0,0,1,.19-.19l22.79,12.4-.19.19" transform="translate(119.7 -83.48)"/><path d="M613.6,364.43,590.81,352l.23-.19,22.8,12.4-.24.19" transform="translate(119.7 -83.48)"/><path d="M613.84,364.24,591,351.84a2.27,2.27,0,0,1,.34-.19l22.79,12.4a2.17,2.17,0,0,0-.33.19" transform="translate(119.7 -83.48)"/><path d="M614.17,364.05l-22.79-12.4a2.19,2.19,0,0,1,.66-.2l22.79,12.4a2.28,2.28,0,0,0-.66.2" transform="translate(119.7 -83.48)"/></g></g></g><path d="M614.83,363.85a2,2,0,0,1,2.26,2.66,41.61,41.61,0,0,0-1,10.13c.05,6.24.94,12.31,1.3,18.49.32,5.49.21,11.28-2.12,16.68a2.48,2.48,0,0,1-1.92,1.44,2,2,0,0,1-1.12-.16,2.36,2.36,0,0,1-.8-3.17,24.37,24.37,0,0,0,1.63-9.18,105.57,105.57,0,0,0-.62-11.28c-.7-7.7-1.55-15.67.39-23.62A2.48,2.48,0,0,1,614.83,363.85Z" transform="translate(119.7 -83.48)"/></g><g style="isolation:isolate"><g style="isolation:isolate"><g style="clip-path:url(#clip-path-31)"><g style="isolation:isolate"><path d="M566.08,410.07l-22.79-12.4c5.46-.77,10.91-1.38,16.35-1.76,10.93-.76,21.94-.65,32.31,1.78h0l22.8,12.4h-.06c-10.37-2.43-21.38-2.54-32.31-1.78-5.44.38-10.89,1-16.35,1.76" transform="translate(119.7 -83.48)"/><path d="M614.8,410.1,592,397.7a1.92,1.92,0,0,1,.42.16l22.79,12.39a2.86,2.86,0,0,0-.41-.15" transform="translate(119.7 -83.48)"/><path d="M615.21,410.25l-22.79-12.39.08,0,22.79,12.39-.08,0" transform="translate(119.7 -83.48)"/></g></g></g><g style="isolation:isolate"><g style="clip-path:url(#clip-path-32)"><g style="isolation:isolate"><path d="M417.67,436.73l-22.79-12.4a2.34,2.34,0,0,1-.95-2.56q0-.16.09-.3l22.8,12.39a1.58,1.58,0,0,0-.09.31,2.34,2.34,0,0,0,.94,2.56" transform="translate(119.7 -83.48)"/><path d="M416.82,433.86,394,421.47a2,2,0,0,1,.17-.36L417,433.51a2.21,2.21,0,0,0-.16.35" transform="translate(119.7 -83.48)"/><path d="M417,433.51l-22.79-12.4a2.54,2.54,0,0,1,.16-.28l22.8,12.4a2.61,2.61,0,0,0-.17.28" transform="translate(119.7 -83.48)"/><path d="M417.15,433.23l-22.8-12.4a2.11,2.11,0,0,1,.19-.23L417.33,433a2,2,0,0,0-.18.23" transform="translate(119.7 -83.48)"/><path d="M417.33,433l-22.79-12.4.21-.22,22.8,12.4-.22.22" transform="translate(119.7 -83.48)"/><path d="M417.55,432.78l-22.8-12.4.27-.21,22.79,12.4a2.65,2.65,0,0,0-.26.21" transform="translate(119.7 -83.48)"/><path d="M417.81,432.57,395,420.17a2.88,2.88,0,0,1,.38-.22l22.8,12.4a3,3,0,0,0-.39.22" transform="translate(119.7 -83.48)"/><path d="M418.2,432.35,395.4,420a3,3,0,0,1,.76-.23,3,3,0,0,1,.52,0c1.51.1,3,.18,4.54.23a224,224,0,0,0,38.63-2.54l.51-.07c13.78-2,27.56-4.71,41.32-7.6,13.51-2.85,27-5.87,40.53-8.47,7-1.35,14-2.59,21.08-3.58l22.79,12.4c-7,1-14.06,2.23-21.08,3.58-13.52,2.6-27,5.62-40.53,8.47-13.75,2.89-27.53,5.64-41.32,7.6l-.51.07A224,224,0,0,1,424,432.33c-1.51-.06-3-.13-4.54-.23a3,3,0,0,0-.52,0,2.83,2.83,0,0,0-.75.23" transform="translate(119.7 -83.48)"/></g></g></g><path d="M566.08,410.07c5.46-.77,10.91-1.38,16.35-1.76,10.93-.76,21.94-.65,32.31,1.78a2.13,2.13,0,0,1,1.55,2.73,2.86,2.86,0,0,1-2.15,2.09,1.67,1.67,0,0,1-.59,0c-1.16-.28-2.34-.52-3.51-.73-10.58-1.94-21.57-1.69-32.56-.64-3.83.36-7.66.83-11.49,1.36-8.91,1.26-17.82,2.92-26.7,4.7-13.6,2.72-27.18,5.78-40.78,8.58-11.9,2.46-23.81,4.74-35.74,6.41-1.76.25-3.52.49-5.28.7a209.32,209.32,0,0,1-39.22,1.63c-1.18-.08-1.84-1.52-1.54-2.73a2.69,2.69,0,0,1,2.22-2.05,3,3,0,0,1,.52,0c1.51.1,3,.17,4.54.23a224,224,0,0,0,38.63-2.54l.51-.07c13.79-2,27.57-4.71,41.32-7.6,13.51-2.85,27-5.87,40.53-8.47C552,412.3,559.05,411.06,566.08,410.07Z" transform="translate(119.7 -83.48)"/></g><g style="isolation:isolate"><g style="isolation:isolate"><g style="clip-path:url(#clip-path-33)"><g style="isolation:isolate"><path d="M418.41,433.33l-22.8-12.4a2.16,2.16,0,0,1,.88,0l22.8,12.4a2.17,2.17,0,0,0-.88,0" transform="translate(119.7 -83.48)"/><path d="M419.29,433.37,396.49,421a2.86,2.86,0,0,1,.41.15l22.79,12.4a2.74,2.74,0,0,0-.4-.15" transform="translate(119.7 -83.48)"/><path d="M419.69,433.52l-22.79-12.4.07,0,22.8,12.4-.08,0" transform="translate(119.7 -83.48)"/></g></g></g><g style="isolation:isolate"><g style="clip-path:url(#clip-path-34)"><g style="isolation:isolate"><path d="M415.71,482.54l-22.8-12.4a2.36,2.36,0,0,1-.8-3l22.8,12.4a2.35,2.35,0,0,0,.8,3" transform="translate(119.7 -83.48)"/><path d="M414.91,479.57l-22.8-12.4a1.22,1.22,0,0,0,.07-.17c.11-.26.22-.52.31-.78l22.8,12.4c-.1.26-.2.52-.31.78a.87.87,0,0,0-.07.17" transform="translate(119.7 -83.48)"/><path d="M415.29,478.62l-22.8-12.4a25.8,25.8,0,0,0,1.32-8.4,105.62,105.62,0,0,0-.62-11.29c-.7-7.7-1.55-15.66.39-23.62a3.07,3.07,0,0,1,.11-.36L416.48,435a3.07,3.07,0,0,0-.11.36c-1.93,8-1.08,15.92-.39,23.62a103.07,103.07,0,0,1,.62,11.29,25.79,25.79,0,0,1-1.31,8.4" transform="translate(119.7 -83.48)"/><path d="M416.48,435l-22.79-12.4c.05-.13.1-.25.16-.37l22.8,12.4a3.17,3.17,0,0,0-.17.37" transform="translate(119.7 -83.48)"/><path d="M416.65,434.58l-22.8-12.4.17-.27,22.79,12.4a2.4,2.4,0,0,0-.16.27" transform="translate(119.7 -83.48)"/><path d="M416.81,434.31,394,421.91l.17-.22L417,434.09l-.17.22" transform="translate(119.7 -83.48)"/><path d="M417,434.09l-22.79-12.4.19-.19,22.8,12.4-.2.19" transform="translate(119.7 -83.48)"/><path d="M417.18,433.9l-22.8-12.4.24-.19,22.79,12.4a2.11,2.11,0,0,0-.23.19" transform="translate(119.7 -83.48)"/><path d="M417.41,433.71l-22.79-12.4a2.59,2.59,0,0,1,.33-.19l22.79,12.4-.33.19" transform="translate(119.7 -83.48)"/><path d="M417.74,433.52,395,421.12a2.26,2.26,0,0,1,.66-.19l22.8,12.4a2.32,2.32,0,0,0-.67.19" transform="translate(119.7 -83.48)"/></g></g></g><path d="M418.41,433.33a2,2,0,0,1,2.25,2.65,41.14,41.14,0,0,0-1,10.14c.05,6.24.93,12.31,1.29,18.48.31,5.49.21,11.29-2.11,16.68a2.51,2.51,0,0,1-1.93,1.44,1.91,1.91,0,0,1-1.12-.15,2.37,2.37,0,0,1-.79-3.17,24.56,24.56,0,0,0,1.62-9.18,103.07,103.07,0,0,0-.62-11.29c-.69-7.7-1.54-15.66.39-23.62A2.45,2.45,0,0,1,418.41,433.33Z" transform="translate(119.7 -83.48)"/></g><g style="isolation:isolate"><g style="isolation:isolate"><g style="clip-path:url(#clip-path-35)"><g style="isolation:isolate"><path d="M566.08,455.78l-22.79-12.4c5.46-.77,10.91-1.38,16.35-1.76,10.93-.76,21.94-.64,32.31,1.78h0l22.8,12.4h-.06c-10.37-2.42-21.38-2.54-32.31-1.78-5.44.38-10.89,1-16.35,1.76" transform="translate(119.7 -83.48)"/><path d="M614.8,455.81,592,443.41a1.92,1.92,0,0,1,.42.16L615.21,456a2.05,2.05,0,0,0-.41-.16" transform="translate(119.7 -83.48)"/><path d="M615.21,456l-22.79-12.4.08,0L615.29,456l-.08,0" transform="translate(119.7 -83.48)"/></g></g></g><g style="isolation:isolate"><g style="clip-path:url(#clip-path-36)"><g style="isolation:isolate"><path d="M417.67,482.44,394.88,470a2.34,2.34,0,0,1-.95-2.56q0-.17.09-.3l22.8,12.4a1.32,1.32,0,0,0-.09.3,2.34,2.34,0,0,0,.94,2.56" transform="translate(119.7 -83.48)"/><path d="M416.82,479.58,394,467.18a2,2,0,0,1,.17-.36L417,479.22a2,2,0,0,0-.16.36" transform="translate(119.7 -83.48)"/><path d="M417,479.22l-22.79-12.4a1.75,1.75,0,0,1,.16-.27l22.8,12.39a2.61,2.61,0,0,0-.17.28" transform="translate(119.7 -83.48)"/><path d="M417.15,478.94l-22.8-12.39a1.55,1.55,0,0,1,.19-.24l22.79,12.4a2,2,0,0,0-.18.23" transform="translate(119.7 -83.48)"/><path d="M417.33,478.71l-22.79-12.4.21-.22,22.8,12.4-.22.22" transform="translate(119.7 -83.48)"/><path d="M417.55,478.49l-22.8-12.4.27-.21,22.79,12.4-.26.21" transform="translate(119.7 -83.48)"/><path d="M417.81,478.28,395,465.88a2.88,2.88,0,0,1,.38-.22l22.8,12.4a3,3,0,0,0-.39.22" transform="translate(119.7 -83.48)"/><path d="M418.2,478.06l-22.8-12.4a2.64,2.64,0,0,1,.76-.22,1.8,1.8,0,0,1,.52,0c1.51.09,3,.17,4.54.22,12.74.45,25.72-.73,38.63-2.54l.51-.07c13.78-2,27.56-4.71,41.32-7.6,13.51-2.85,27-5.87,40.53-8.47,7-1.35,14-2.59,21.08-3.58l22.79,12.4c-7,1-14.06,2.23-21.08,3.58-13.52,2.6-27,5.62-40.53,8.47-13.75,2.89-27.53,5.64-41.32,7.6l-.51.07A224,224,0,0,1,424,478c-1.51-.05-3-.13-4.54-.23a3,3,0,0,0-.52,0,2.83,2.83,0,0,0-.75.23" transform="translate(119.7 -83.48)"/></g></g></g><path d="M566.08,455.78c5.46-.77,10.91-1.38,16.35-1.76,10.93-.76,21.94-.64,32.31,1.78a2.14,2.14,0,0,1,1.55,2.74,2.84,2.84,0,0,1-2.15,2.08,1.67,1.67,0,0,1-.59,0c-1.16-.28-2.34-.52-3.51-.73-10.58-1.94-21.57-1.68-32.56-.64-3.83.36-7.66.83-11.49,1.36-8.91,1.26-17.82,2.92-26.7,4.7-13.6,2.72-27.18,5.78-40.78,8.58-11.9,2.46-23.81,4.74-35.74,6.41-1.76.25-3.52.49-5.28.71a210.17,210.17,0,0,1-39.22,1.63c-1.18-.08-1.84-1.53-1.54-2.74a2.7,2.7,0,0,1,2.22-2.05,3,3,0,0,1,.52,0c1.51.1,3,.18,4.54.23a224,224,0,0,0,38.63-2.54l.51-.07c13.79-2,27.57-4.71,41.32-7.6C518,465,531.48,462,545,459.36,552,458,559.05,456.77,566.08,455.78Z" transform="translate(119.7 -83.48)"/></g></svg>